<svg xmlns="http://www.w3.org/2000/svg" width="231.702" height="236.291"
  viewBox="0 0 231.702 236.291">
  <g id="Group_49" data-name="Group 49" transform="translate(-133.88 -83.599)">
    <g id="Group_37" data-name="Group 37">
      <path id="Path_38" data-name="Path 38"
        d="M246.27,84.7V96.445a1.109,1.109,0,0,1-1.115,1.1,1.079,1.079,0,0,1-1.1-1.1v-9.8l-.8.458a1,1,0,0,1-.558.159,1.117,1.117,0,0,1-.578-2.052l2.449-1.454c.02-.02.06-.02.08-.04.04,0,.06-.04.1-.06.04,0,.08-.02.12-.02a.12.12,0,0,1,.08-.02.338.338,0,0,1,.139-.02h.22a.12.12,0,0,0,.08.02.222.222,0,0,1,.12.039.12.12,0,0,1,.08.02c.059.04.08.06.119.06a.276.276,0,0,0,.08.06c.02.02.06.04.08.06.04.02.06.06.08.08a.259.259,0,0,1,.059.08l.08.08.02.04c0,.02.02.04.02.06.02.04.04.06.04.1.02.04.02.08.04.1a.866.866,0,0,0,.02.1.169.169,0,0,0,.04.14A.386.386,0,0,0,246.27,84.7Z"
        fill="#e94242" />
      <path id="Path_39" data-name="Path 39"
        d="M257.8,96.445a1.08,1.08,0,0,1-1.1,1.1h-7.089a1.074,1.074,0,0,1-.816-.358,1.1,1.1,0,0,1,.059-1.553l5.9-5.336a2.5,2.5,0,0,0,.836-1.912,2.577,2.577,0,0,0-.657-1.732,2.525,2.525,0,0,0-1.911-.836,2.614,2.614,0,0,0-1.732.657l-.618.557a1.084,1.084,0,0,1-1.553-.08,1.1,1.1,0,0,1,.08-1.553l.618-.557a4.7,4.7,0,0,1,3.206-1.235,4.8,4.8,0,0,1,3.544,1.573,4.7,4.7,0,0,1,1.234,3.206,4.8,4.8,0,0,1-1.572,3.544l-3.764,3.4H256.7A1.1,1.1,0,0,1,257.8,96.445Z"
        fill="#e94242" />
    </g>
    <g id="Group_38" data-name="Group 38">
      <path id="Path_40" data-name="Path 40"
        d="M306.557,99.363v11.748a1.109,1.109,0,0,1-1.115,1.1,1.081,1.081,0,0,1-1.1-1.1v-9.8l-.8.458a1,1,0,0,1-.558.159,1.117,1.117,0,0,1-.578-2.052l2.449-1.454c.021-.02.061-.02.08-.04.04,0,.06-.04.1-.06.04,0,.08-.02.119-.02a.122.122,0,0,1,.08-.02.34.34,0,0,1,.14-.02h.22a.119.119,0,0,0,.079.02.212.212,0,0,1,.12.04.116.116,0,0,1,.079.02c.061.04.08.06.12.06a.269.269,0,0,0,.079.06c.021.02.06.04.08.06.04.02.06.06.079.08a.277.277,0,0,1,.061.08l.079.08.02.04c0,.02.02.04.02.06.02.04.04.06.04.1.02.04.02.08.039.1a.83.83,0,0,0,.021.1.169.169,0,0,0,.04.14C306.557,99.323,306.557,99.343,306.557,99.363Z"
        fill="#e94242" />
    </g>
    <g id="Group_39" data-name="Group 39">
      <path id="Path_41" data-name="Path 41"
        d="M191.227,99.363v11.748a1.109,1.109,0,0,1-1.115,1.1,1.079,1.079,0,0,1-1.1-1.1v-9.8l-.8.458a1,1,0,0,1-.558.159,1.117,1.117,0,0,1-.578-2.052l2.449-1.454c.02-.02.06-.02.08-.04.04,0,.06-.04.1-.06.04,0,.08-.02.12-.02a.12.12,0,0,1,.08-.02.336.336,0,0,1,.139-.02h.22a.12.12,0,0,0,.08.02.214.214,0,0,1,.12.04.122.122,0,0,1,.08.02c.06.04.08.06.119.06a.276.276,0,0,0,.08.06c.02.02.06.04.08.06.04.02.06.06.08.08a.276.276,0,0,1,.06.08l.08.08.02.04c0,.02.02.04.02.06.02.04.04.06.04.1.02.04.02.08.04.1a.866.866,0,0,0,.02.1.169.169,0,0,0,.04.14A.287.287,0,0,0,191.227,99.363Z"
        fill="#e94242" />
      <path id="Path_42" data-name="Path 42"
        d="M197.9,99.363v11.748a1.109,1.109,0,0,1-1.115,1.1,1.079,1.079,0,0,1-1.1-1.1v-9.8l-.8.458a1,1,0,0,1-.558.159,1.117,1.117,0,0,1-.578-2.052l2.449-1.454c.02-.02.06-.02.08-.04.04,0,.06-.04.1-.06.04,0,.08-.02.12-.02a.12.12,0,0,1,.08-.02.338.338,0,0,1,.139-.02h.22a.12.12,0,0,0,.08.02.214.214,0,0,1,.12.04.12.12,0,0,1,.08.02c.06.04.08.06.119.06a.276.276,0,0,0,.08.06c.02.02.06.04.08.06.04.02.06.06.08.08a.276.276,0,0,1,.06.08l.08.08.02.04c0,.02.02.04.02.06.02.04.04.06.04.1.02.04.02.08.04.1a.866.866,0,0,0,.02.1.169.169,0,0,0,.04.14A.287.287,0,0,0,197.9,99.363Z"
        fill="#e94242" />
    </g>
    <g id="Group_40" data-name="Group 40">
      <path id="Path_43" data-name="Path 43"
        d="M351.37,152.561a1.08,1.08,0,0,1-1.1,1.1h-7.09a1.075,1.075,0,0,1-.816-.358,1.1,1.1,0,0,1,.061-1.553l5.893-5.336a2.5,2.5,0,0,0,.837-1.912,2.582,2.582,0,0,0-.657-1.732,2.525,2.525,0,0,0-1.912-.836,2.616,2.616,0,0,0-1.732.657l-.617.558a1.084,1.084,0,0,1-1.553-.08,1.1,1.1,0,0,1,.079-1.553l.617-.557a4.7,4.7,0,0,1,3.206-1.235,4.8,4.8,0,0,1,3.545,1.573,4.7,4.7,0,0,1,1.234,3.206,4.8,4.8,0,0,1-1.573,3.544l-3.764,3.4h4.241A1.1,1.1,0,0,1,351.37,152.561Z"
        fill="#e94242" />
    </g>
    <g id="Group_41" data-name="Group 41">
      <path id="Path_44" data-name="Path 44"
        d="M149.267,140.813v11.748a1.109,1.109,0,0,1-1.115,1.1,1.079,1.079,0,0,1-1.1-1.1v-9.8l-.8.458a1,1,0,0,1-.558.159,1.117,1.117,0,0,1-.578-2.052l2.449-1.454c.02-.02.06-.02.08-.04.04,0,.06-.04.1-.06.04,0,.08-.02.12-.02a.12.12,0,0,1,.08-.02.338.338,0,0,1,.139-.02h.22a.12.12,0,0,0,.08.02.214.214,0,0,1,.12.04.118.118,0,0,1,.079.02c.06.04.08.06.119.06a.276.276,0,0,0,.08.06c.02.02.059.039.08.06.039.02.059.06.079.08a.276.276,0,0,1,.06.08l.08.08.02.04c0,.02.02.04.02.06.02.04.04.06.04.1.02.04.02.08.04.1a.867.867,0,0,0,.02.1.172.172,0,0,0,.039.14C149.267,140.773,149.267,140.793,149.267,140.813Z"
        fill="#e94242" />
      <path id="Path_45" data-name="Path 45"
        d="M151.794,146.688a8.527,8.527,0,0,1,1.354-4.759,4.192,4.192,0,0,1,7.388,0,9.156,9.156,0,0,1,0,9.518,4.192,4.192,0,0,1-7.388,0A8.58,8.58,0,0,1,151.794,146.688Zm7.866,0a6.6,6.6,0,0,0-.956-3.544,2.312,2.312,0,0,0-1.852-1.215,2.4,2.4,0,0,0-1.892,1.215,7.016,7.016,0,0,0,0,7.068,2.427,2.427,0,0,0,1.892,1.234,2.343,2.343,0,0,0,1.852-1.234A6.53,6.53,0,0,0,159.66,146.688Z"
        fill="#e94242" />
    </g>
    <g id="Group_42" data-name="Group 42">
      <path id="Path_46" data-name="Path 46"
        d="M133.88,199.793a4.832,4.832,0,0,1,9.637-.5c0,.02,0,.02.02.04.02.378.04.757.04,1.135a11.656,11.656,0,0,1-.7,4.082,6.964,6.964,0,0,1-2.569,3.4,5.709,5.709,0,0,1-2.987.936,1.11,1.11,0,0,1-1.155-1.055,1.152,1.152,0,0,1,1.076-1.155,3.644,3.644,0,0,0,1.872-.558,4.588,4.588,0,0,0,1.513-1.912,4.687,4.687,0,0,1-1.912.4A4.826,4.826,0,0,1,133.88,199.793Zm2.21,0a2.619,2.619,0,1,0,5.238,0,2.619,2.619,0,0,0-5.238,0Z"
        fill="#e94242" />
    </g>
    <g id="Group_43" data-name="Group 43">
      <path id="Path_47" data-name="Path 47"
        d="M364.128,200.45a4.864,4.864,0,0,1,1.454,3.485,4.942,4.942,0,0,1-8.443,3.5,1.127,1.127,0,0,1,1.594-1.593,2.648,2.648,0,0,0,1.892.776,2.732,2.732,0,0,0,1.911-.776,2.668,2.668,0,0,0,.8-1.912,2.591,2.591,0,0,0-.8-1.892,2.669,2.669,0,0,0-1.892-.8.982.982,0,0,1-.816-.358c-.02,0-.02,0-.02-.02a1.13,1.13,0,0,1-.04-1.593L361.8,197.2h-3.227a1.125,1.125,0,0,1,0-2.25h5.875a1.118,1.118,0,0,1,1.135,1.115,1.2,1.2,0,0,1-.14.538,1.408,1.408,0,0,1-.2.279l-2.509,2.589A4.5,4.5,0,0,1,364.128,200.45Z"
        fill="#e94242" />
    </g>
    <g id="Group_44" data-name="Group 44">
      <path id="Path_48" data-name="Path 48"
        d="M350.989,260.663a1.1,1.1,0,0,1-1.114,1.1h-.2v1.514a1.1,1.1,0,0,1-2.191,0v-1.514h-6.273a.98.98,0,0,1-.678-.239,1.066,1.066,0,0,1-.179-1.533l7.367-9.161c.02,0,.02-.02.04-.039a.271.271,0,0,0,.059-.08.223.223,0,0,0,.1-.059c.021-.021.06-.04.08-.06a.206.206,0,0,1,.119-.04c.02-.04.04-.06.08-.06.02-.02.06-.02.119-.04a.12.12,0,0,0,.08-.02h.338a.18.18,0,0,0,.1.02c.02.02.08.02.12.04.019,0,.06.02.079.02.04.04.08.06.1.08.04.02.06.039.1.06a.02.02,0,0,1,.02.02c.021,0,.061.02.061.04l.079.08c.021.02.04.06.06.079a.506.506,0,0,1,.08.1.158.158,0,0,0,.04.081.723.723,0,0,1,.039.119c0,.02.021.06.021.08a.213.213,0,0,1,.02.119c0,.04.021.059.021.1v8.1h.2A1.1,1.1,0,0,1,350.989,260.663Zm-3.5-6.014-3.963,4.919h3.963Z"
        fill="#e94242" />
    </g>
    <g id="Group_45" data-name="Group 45">
      <path id="Path_49" data-name="Path 49"
        d="M158.5,259.628a4.759,4.759,0,1,1-7.387-3.963,3.208,3.208,0,0,1-.657-1.971,3.286,3.286,0,0,1,6.571,0,3.216,3.216,0,0,1-.657,1.971A4.783,4.783,0,0,1,158.5,259.628Zm-2.17,0a2.592,2.592,0,0,0-2.569-2.589,2.579,2.579,0,1,0,0,5.157A2.574,2.574,0,0,0,156.331,259.628Zm-3.7-5.934a1.115,1.115,0,1,0,2.23,0,1.115,1.115,0,0,0-2.23,0Z"
        fill="#e94242" />
    </g>
    <g id="Group_46" data-name="Group 46">
      <path id="Path_50" data-name="Path 50"
        d="M307.938,297.845a4.878,4.878,0,0,1,1.453,3.505,4.95,4.95,0,0,1-1.453,3.484,4.868,4.868,0,0,1-3.485,1.454h-.04a4.826,4.826,0,0,1-3.465-1.454,1.1,1.1,0,0,1,0-1.593,1.131,1.131,0,0,1,1.594,0,2.667,2.667,0,0,0,3.8,0,2.706,2.706,0,0,0,.8-1.892,2.6,2.6,0,0,0-.8-1.911,2.569,2.569,0,0,0-1.892-.777,2.645,2.645,0,0,0-1.911.777,1.131,1.131,0,0,1-1.594,0c-.079-.08-.139-.18-.219-.259,0-.04,0-.061-.019-.061a.163.163,0,0,0-.04-.1c0-.06-.02-.1-.02-.139,0-.02-.021-.02-.021-.04a.964.964,0,0,1,0-.339l.6-5.157a1.21,1.21,0,0,1,.5-.8c.039-.02.06-.02.079-.039s.04-.02.06-.04a1.1,1.1,0,0,1,.518-.119h5.874a1.125,1.125,0,1,1,0,2.25h-4.9l-.239,1.971a5.142,5.142,0,0,1,1.334-.179A4.88,4.88,0,0,1,307.938,297.845Z"
        fill="#e94242" />
    </g>
    <g id="Group_47" data-name="Group 47">
      <path id="Path_51" data-name="Path 51"
        d="M198.871,293.862l-4.979,11.769a1.045,1.045,0,0,1-1.015.657,1.1,1.1,0,0,1-.418-.08,1.13,1.13,0,0,1-.6-1.434l4.3-10.215h-5.138a1.123,1.123,0,0,1-1.1-1.115,1.092,1.092,0,0,1,1.1-1.1h6.83a.744.744,0,0,1,.2.02,1.834,1.834,0,0,1,.418.159l.06.06a.16.16,0,0,1,.08.08c.02.04.06.06.08.079a.259.259,0,0,0,.06.08.211.211,0,0,1,.04.1.351.351,0,0,0,.08.1c0,.02.02.079.02.1.02.04.02.059.04.1a1.606,1.606,0,0,1,0,.438C198.911,293.743,198.891,293.8,198.871,293.862Z"
        fill="#e94242" />
    </g>
    <g id="Group_48" data-name="Group 48">
      <path id="Path_52" data-name="Path 52"
        d="M254.623,315.071a4.833,4.833,0,0,1-9.638.5c0-.02,0-.02-.02-.04-.02-.378-.04-.756-.04-1.135a11.66,11.66,0,0,1,.7-4.082,6.964,6.964,0,0,1,2.569-3.4,5.69,5.69,0,0,1,2.987-.935,1.11,1.11,0,0,1,1.155,1.056,1.151,1.151,0,0,1-1.075,1.154,3.638,3.638,0,0,0-1.872.558,4.6,4.6,0,0,0-1.513,1.913,4.687,4.687,0,0,1,1.912-.4A4.824,4.824,0,0,1,254.623,315.071Zm-2.211,0a2.619,2.619,0,1,0-5.237,0,2.619,2.619,0,0,0,5.237,0Z"
        fill="#e94242" />
    </g>
  </g>
</svg>